<svg xmlns="http://www.w3.org/2000/svg" version="1.1" xmlns:xlink="http://www.w3.org/1999/xlink" xmlns:svgjs="http://svgjs.dev/svgjs" width="1000" height="623" viewBox="0 0 1000 623"><g transform="matrix(1,0,0,1,-0.6060606060606233,0.2522267206477409)"><svg viewBox="0 0 396 247" data-background-color="#ffffff" preserveAspectRatio="xMidYMid meet" height="623" width="1000" xmlns="http://www.w3.org/2000/svg" xmlns:xlink="http://www.w3.org/1999/xlink"><g id="tight-bounds" transform="matrix(1,0,0,1,0.2400000000000091,-0.09999999999999432)"><svg viewBox="0 0 395.52 247.2" height="247.2" width="395.52"><g><svg></svg></g><g><svg viewBox="0 0 395.52 247.2" height="247.2" width="395.52"><g><g><path d="M117.997 0h116.349c16.26 0 27.533 3.56 33.817 10.679 6.24 7.163 9.361 17.996 9.36 32.499l0 23.597-27.027 0v-44.362h-84.707l0 44.362-27.027 0v-44.362h-20.765zM277.523 204.022c0 15.162-3.516 26.148-10.547 32.96-7.031 6.812-17.908 10.218-32.63 10.218h-116.349v-22.413h20.765l0-44.362 27.027 0v44.362h84.707v-44.362l27.027 0z" fill="#5e7ce2" fill-rule="nonzero" stroke="none" stroke-width="1" stroke-linecap="butt" stroke-linejoin="miter" stroke-miterlimit="10" stroke-dasharray="" stroke-dashoffset="0" font-family="none" font-weight="none" font-size="none" text-anchor="none" style="mix-blend-mode: normal" data-fill-palette-color="tertiary"></path></g></g><g transform="matrix(1,0,0,1,0,76.31229282724837)"><svg viewBox="0 0 395.52 94.57541434550325" height="94.57541434550325" width="395.52"><g><svg viewBox="0 0 395.52 94.57541434550325" height="94.57541434550325" width="395.52"><g><svg viewBox="0 0 395.52 94.57541434550325" height="94.57541434550325" width="395.52"><g><svg viewBox="0 0 395.52 94.57541434550325" height="94.57541434550325" width="395.52"><g><svg viewBox="0 0 395.52 94.57541434550325" height="94.57541434550325" width="395.52"><g><svg viewBox="0 0 395.52 65.36099151989562" height="65.36099151989562" width="395.52"><g transform="matrix(1,0,0,1,0,0)"><svg width="395.52" viewBox="2.5 -37.5 229.93 38" height="65.36099151989562" data-palette-color="#085f63"><path d="M21.2-3.45L24.35-3.45 24.35 0 17.1 0 17.1-5.75 8.45-0.3Q6.9 0.5 5.53 0.5 4.15 0.5 3.33-0.5 2.5-1.5 2.5-2.8L2.5-2.8 2.5-20.3Q2.5-22.6 3.2-23.45L3.2-23.45Q4.4-25 7-25L7-25 17.1-25 17.1-34.1 13.8-34.1 13.8-37.5 21.2-37.5 21.2-3.45ZM17.1-9.75L17.1-21.6 6.5-21.6 6.5-3.15 17.1-9.75ZM35.45 0.1L35.45 0.1Q31.55 0.1 31.55-3.75L31.55-3.75 31.55-21.65 28.35-21.65 28.35-25.05 35.6-25.05 35.6-3.4 45.55-9.65 45.55-21.65 43.1-21.65 43.1-25.05 49.6-25.05 49.6-3.4 52.75-3.4 52.75 0 45.55 0 45.55-5.6 37.25-0.4Q36.45 0.1 35.45 0.1ZM71.9-25L71.9-25Q75.8-25 75.8-21.15L75.8-21.15 75.8-16.7 71.75-16.7 71.75-21.55 63.95-16.6 63.95-3.4 66.4-3.4 66.4 0 56.75 0 56.75-3.4 59.9-3.4 59.9-21.65 56.75-21.65 56.75-25.05 63.95-25.05 63.95-20.65 70.09-24.5Q70.9-25 71.9-25ZM91.74-21.4L87.69-21.4 87.69-3.4 91.74-3.4 91.74 0 79.79 0 79.79-3.4 83.79-3.4 83.79-21.4 79.79-21.4 79.79-25 83.79-25 83.79-32.3Q83.79-35.15 84.89-36.33 85.99-37.5 88.24-37.5L88.24-37.5 92.39-37.5 92.39-34.1 87.69-34.1 87.69-25 91.74-25 91.74-21.4ZM99.97-4.95Q100.99-4.95 101.72-4.15 102.44-3.35 102.44-2.3 102.44-1.25 101.72-0.53 100.99 0.2 99.94 0.2 98.89 0.2 98.14-0.53 97.39-1.25 97.39-2.3 97.39-3.35 98.17-4.15 98.94-4.95 99.97-4.95ZM106.44-21.6L106.44-25 114.39-25 114.39-21.6 112.19-21.6 116.24-3.45 120.89-25 126.39-25 131.19-3.35 135.29-21.6 133.04-21.6 133.04-25 141.04-25 141.04-21.6 138.64-21.6 133.89 0 128.54 0 123.79-21.65 118.94 0 113.34 0Q113.34 0 112.99-1.6L112.99-1.6Q112.64-3.25 112.11-5.65 111.59-8.05 110.99-10.85 110.39-13.65 109.86-16.05 109.34-18.45 108.94-20L108.94-20 108.59-21.6 106.44-21.6ZM157.94 0L148.69 0Q146.14 0 145.09-1.18 144.04-2.35 144.04-4.45L144.04-4.45 144.04-20.55Q144.04-22.55 144.96-23.78 145.89-25 148.69-25L148.69-25 157.94-25Q160.69-25 161.64-23.78 162.59-22.55 162.59-20.55L162.59-20.55 162.59-4.45Q162.59-2.35 161.54-1.18 160.49 0 157.94 0L157.94 0ZM148.09-21.6L148.09-3.4 158.54-3.4 158.54-21.6 148.09-21.6ZM181.73-25L181.73-25Q185.63-25 185.63-21.15L185.63-21.15 185.63-16.7 181.58-16.7 181.58-21.55 173.78-16.6 173.78-3.4 176.23-3.4 176.23 0 166.58 0 166.58-3.4 169.73-3.4 169.73-21.65 166.58-21.65 166.58-25.05 173.78-25.05 173.78-20.65 179.93-24.5Q180.73-25 181.73-25ZM209.38-3.4L211.98-3.4 211.98 0 207.68 0 196.83-12.6 196.83-3.4 199.83-3.4 199.83 0 189.63 0 189.63-3.4 192.83-3.4 192.83-34.1 189.63-34.1 189.63-37.5 196.63-37.5 196.63-13.8 208.03-25 211.93-25 211.93-21.6 209.18-21.6 201.03-13.25 209.38-3.4ZM232.43-7.5L232.43-4.4Q232.43 0 228.13 0L228.13 0 216.03 0 216.03-7.55 219.43-7.55 219.43-3.4 228.43-3.4 228.43-7.55 220.23-12.7Q218.98-13.5 218.08-14 217.18-14.5 216.58-15L216.58-15Q215.48-16 215.48-17.7L215.48-17.7 215.48-20.55Q215.48-22.65 216.18-23.45L216.18-23.45Q217.53-25 220.18-25L220.18-25 231.83-25 231.83-17.5 228.43-17.5 228.43-21.6 219.43-21.6 219.43-17.4 227.93-12.1Q228.98-11.45 229.8-10.98 230.63-10.5 231.18-10L231.18-10Q232.43-8.95 232.43-7.5L232.43-7.5Z" opacity="1" transform="matrix(1,0,0,1,0,0)" fill="#085f63" class="undefined-text-0" data-fill-palette-color="primary" id="text-0"></path></svg></g></svg></g><g transform="matrix(1,0,0,1,0,74.89872884644487)"><svg viewBox="0 0 395.52 19.676685499058376" height="19.676685499058376" width="395.52"><g transform="matrix(1,0,0,1,0,0)"><svg width="395.52" viewBox="1.15 -36.65 955.71 47.55" height="19.676685499058376" data-palette-color="#49beb7"><path d="M11.3-3.95L16.75-3.95 16.75 0 1.15 0 1.15-3.95 6.4-3.95 6.4-30.35 1.15-30.35 1.15-34.3 11.3-34.3 11.3-3.95ZM41.25-6.7L43.35-3.5Q38.55 0.7 32.4 0.7L32.4 0.7Q29.05 0.7 26.05-0.7 23.05-2.1 21.2-4.8 19.35-7.5 19.35-11.2L19.35-11.2Q19.35-15.15 21.25-18.1 23.15-21.05 26.2-22.63 29.25-24.2 32.6-24.2L32.6-24.2Q35.55-24.2 37.87-23.25 40.2-22.3 41.52-20.6 42.85-18.9 42.85-16.7L42.85-16.7Q42.85-13.4 40.02-11.58 37.2-9.75 33.25-9.75L33.25-9.75Q30.7-9.75 28.5-10.28 26.3-10.8 24.05-11.8L24.05-11.8 24.05-11.35Q24.05-9 25.17-7.2 26.3-5.4 28.2-4.45 30.1-3.5 32.35-3.5L32.35-3.5Q37.45-3.5 41.25-6.7L41.25-6.7ZM32.95-20.3Q30.25-20.3 27.92-18.75 25.6-17.2 24.6-14.55L24.6-14.55Q28.4-13.2 32.2-13.2L32.2-13.2Q34.7-13.2 36.32-14.13 37.95-15.05 37.95-16.7L37.95-16.7Q37.95-18.3 36.55-19.3 35.15-20.3 32.95-20.3L32.95-20.3ZM73.2-4.15L74.2-0.6Q72.55 0.4 70.34 0.4L70.34 0.4Q68.5 0.4 67.22-0.68 65.95-1.75 65.45-3.75L65.45-3.75Q60.45 0.7 55.55 0.7L55.55 0.7Q52.1 0.7 49.7-1.25 47.3-3.2 47.3-6.7L47.3-6.7Q47.3-9.1 48.65-10.88 50-12.65 52.27-13.58 54.55-14.5 57.2-14.5L57.2-14.5Q59.45-14.5 61.35-14.08 63.25-13.65 65.25-12.85L65.25-12.85 65.25-15.05Q65.25-17.6 63.55-18.8 61.85-20 59.1-20L59.1-20Q55.2-20 49.7-17.85L49.7-17.85 48.7-21.65Q54.6-24.15 59.7-24.15L59.7-24.15Q64.55-24.15 67.22-21.78 69.9-19.4 69.9-14.85L69.9-14.85 69.9-6.2Q69.9-3.75 71.65-3.75L71.65-3.75Q72.4-3.75 73.2-4.15L73.2-4.15ZM52.15-6.95Q52.15-5.25 53.5-4.33 54.85-3.4 56.8-3.4L56.8-3.4Q58.5-3.4 60.7-4.3 62.9-5.2 65.25-6.95L65.25-6.95 65.25-9.6Q61.85-10.8 58.05-10.9L58.05-10.9Q55.6-10.9 53.87-9.88 52.15-8.85 52.15-6.95L52.15-6.95ZM105.04-4.05L106.09-0.45Q105.39-0.05 104.39 0.23 103.39 0.5 102.29 0.5L102.29 0.5Q100.44 0.5 99.09-0.48 97.74-1.45 97.24-3.3L97.24-3.3Q95.24-1.5 93.02-0.4 90.79 0.7 88.09 0.7L88.09 0.7Q85.04 0.7 82.42-0.85 79.79-2.4 78.24-5.18 76.69-7.95 76.69-11.45L76.69-11.45Q76.69-15.1 78.32-18.03 79.94-20.95 82.74-22.58 85.54-24.2 88.94-24.2L88.94-24.2Q93.29-24.2 96.94-21L96.94-21 96.94-30.35 91.64-30.35 91.64-34.3 101.74-34.3 101.74-6.05Q101.74-3.65 103.39-3.65L103.39-3.65Q104.49-3.65 105.04-4.05L105.04-4.05ZM81.79-11.5Q81.79-7.9 83.82-5.7 85.84-3.5 89.09-3.5L89.09-3.5Q92.84-3.5 96.94-6.9L96.94-6.9 96.94-17.25Q93.44-20.05 90.04-20.05L90.04-20.05Q87.69-20.05 85.79-18.95 83.89-17.85 82.84-15.9 81.79-13.95 81.79-11.5L81.79-11.5ZM115.79-28.9Q114.19-28.9 113.09-29.75 111.99-30.6 111.99-31.9L111.99-31.9Q111.99-33.25 113.09-34.13 114.19-35 115.79-35L115.79-35Q117.49-35 118.59-34.13 119.69-33.25 119.69-31.9L119.69-31.9Q119.69-30.6 118.59-29.75 117.49-28.9 115.79-28.9L115.79-28.9ZM118.79-3.95L124.14-3.95 124.14 0 108.59 0 108.59-3.95 113.89-3.95 113.89-19.6 108.59-19.6 108.59-23.55 118.79-23.55 118.79-3.95ZM155.89-3.95L160.59-3.95 160.59 0 146.69 0 146.69-3.95 151.04-3.95 151.04-13.7Q151.04-16.45 149.66-18.03 148.29-19.6 145.74-19.6L145.74-19.6Q141.39-19.6 136.54-14.1L136.54-14.1 136.54-3.95 140.89-3.95 140.89 0 126.34 0 126.34-3.95 131.64-3.95 131.64-19.6 126.34-19.6 126.34-23.55 136.54-23.55 136.54-18Q139.34-21.1 141.91-22.63 144.49-24.15 147.44-24.15L147.44-24.15Q151.49-24.15 153.69-21.55 155.89-18.95 155.89-13.85L155.89-13.85 155.89-3.95ZM181.64-4.45Q184.84-4.45 186.81-2.85 188.79-1.25 188.79 1.65L188.79 1.65Q188.79 4.45 186.69 6.55 184.59 8.65 181.04 9.78 177.49 10.9 173.34 10.9L173.34 10.9Q168.29 10.9 165.06 9.03 161.84 7.15 161.84 3.9L161.84 3.9Q161.84 2.45 162.61 1.18 163.39-0.1 164.59-1.05L164.59-1.05Q163.59-1.8 163.06-2.83 162.54-3.85 162.54-5L162.54-5Q162.54-6.85 163.59-8.33 164.64-9.8 166.34-10.8L166.34-10.8Q164.64-12.9 164.64-15.6L164.64-15.6Q164.64-18.3 166.21-20.25 167.79-22.2 170.24-23.2 172.69-24.2 175.24-24.2L175.24-24.2Q178.19-24.2 180.69-23.1L180.69-23.1Q181.59-25.7 183.61-27.05 185.64-28.4 188.44-28.5L188.44-28.5 188.44-24.4Q186.49-24.3 185.16-23.75 183.84-23.2 182.84-21.85L182.84-21.85Q185.94-19.5 185.94-15.75L185.94-15.75Q185.94-13.05 184.39-11.1 182.84-9.15 180.36-8.15 177.89-7.15 175.24-7.15L175.24-7.15Q171.39-7.15 168.34-9.05L168.34-9.05Q166.84-7.7 166.84-6.15L166.84-6.15Q166.84-4.85 167.86-4.13 168.89-3.4 170.69-3.4L170.69-3.4Q172.39-3.4 175.79-3.9L175.79-3.9Q177.14-4.1 178.69-4.28 180.24-4.45 181.64-4.45L181.64-4.45ZM175.29-20.7Q172.84-20.7 171.14-19.28 169.44-17.85 169.44-15.6L169.44-15.6Q169.44-13.35 171.11-12 172.79-10.65 175.29-10.65L175.29-10.65Q177.89-10.65 179.51-12.05 181.14-13.45 181.14-15.75L181.14-15.75Q181.14-18 179.46-19.35 177.79-20.7 175.29-20.7L175.29-20.7ZM174.04 6.85Q176.69 6.85 179.06 6.25 181.44 5.65 182.86 4.53 184.29 3.4 184.29 1.95L184.29 1.95Q184.29-0.6 180.59-0.6L180.59-0.6Q179.59-0.6 178.39-0.45 177.19-0.3 176.04-0.1L176.04-0.1Q174.64 0.15 173.01 0.35 171.39 0.55 169.84 0.55L169.84 0.55Q168.49 0.55 167.09 0.2L167.09 0.2Q166.09 1.35 166.09 2.9L166.09 2.9Q166.09 4.75 168.19 5.8 170.29 6.85 174.04 6.85L174.04 6.85ZM224.98-5.35L226.68-1.65Q224.83-0.55 223.06 0.05 221.28 0.65 218.98 0.65L218.98 0.65Q215.13 0.65 212.86-1.78 210.58-4.2 210.58-8.7L210.58-8.7 210.58-19.6 205.33-19.6 205.33-23.55 210.58-23.55 210.58-30.1 215.48-30.1 215.48-23.55 223.28-23.55 223.28-19.6 215.48-19.6 215.48-8.65Q215.48-6.1 216.63-4.9 217.78-3.7 219.73-3.7L219.73-3.7Q221.13-3.7 222.38-4.13 223.63-4.55 224.98-5.35L224.98-5.35ZM250.03-6.7L252.13-3.5Q247.33 0.7 241.18 0.7L241.18 0.7Q237.83 0.7 234.83-0.7 231.83-2.1 229.98-4.8 228.13-7.5 228.13-11.2L228.13-11.2Q228.13-15.15 230.03-18.1 231.93-21.05 234.98-22.63 238.03-24.2 241.38-24.2L241.38-24.2Q244.33-24.2 246.65-23.25 248.98-22.3 250.3-20.6 251.63-18.9 251.63-16.7L251.63-16.7Q251.63-13.4 248.8-11.58 245.98-9.75 242.03-9.75L242.03-9.75Q239.48-9.75 237.28-10.28 235.08-10.8 232.83-11.8L232.83-11.8 232.83-11.35Q232.83-9 233.95-7.2 235.08-5.4 236.98-4.45 238.88-3.5 241.13-3.5L241.13-3.5Q246.23-3.5 250.03-6.7L250.03-6.7ZM241.73-20.3Q239.03-20.3 236.7-18.75 234.38-17.2 233.38-14.55L233.38-14.55Q237.18-13.2 240.98-13.2L240.98-13.2Q243.48-13.2 245.1-14.13 246.73-15.05 246.73-16.7L246.73-16.7Q246.73-18.3 245.33-19.3 243.93-20.3 241.73-20.3L241.73-20.3ZM277.33-7L279.53-3.8Q274.88 0.7 268.68 0.7L268.68 0.7Q265.38 0.7 262.48-0.85 259.58-2.4 257.83-5.23 256.08-8.05 256.08-11.7L256.08-11.7Q256.08-15.15 257.68-18.03 259.28-20.9 261.98-22.55 264.68-24.2 267.83-24.2L267.83-24.2Q272.83-24.2 275.63-20.65L275.63-20.65 275.63-23.55 279.18-23.55 279.18-15.3 277.08-15.15Q274.63-20.15 269.28-20.15L269.28-20.15Q266.98-20.15 265.13-19.07 263.28-18 262.23-16.1 261.18-14.2 261.18-11.75L261.18-11.75Q261.18-9.35 262.3-7.45 263.43-5.55 265.25-4.53 267.08-3.5 269.18-3.5L269.18-3.5Q271.63-3.45 273.5-4.35 275.38-5.25 277.33-7L277.33-7ZM311.27-3.95L315.97-3.95 315.97 0 302.07 0 302.07-3.95 306.42-3.95 306.42-13.7Q306.42-16.6 305.05-18.2 303.67-19.8 301.07-19.8L301.07-19.8Q297.02-19.8 292.07-14.3L292.07-14.3 292.07-3.95 296.37-3.95 296.37 0 281.87 0 281.87-3.95 287.17-3.95 287.17-30.35 281.87-30.35 281.87-34.3 292.07-34.3 292.07-18.15Q294.82-21.15 297.4-22.65 299.97-24.15 303.02-24.15L303.02-24.15Q307.07-24.15 309.17-21.58 311.27-19 311.27-13.85L311.27-13.85 311.27-3.95ZM351.82-24.2Q354.77-24.2 357.27-22.65 359.77-21.1 361.27-18.32 362.77-15.55 362.77-12L362.77-12Q362.77-8.35 361.14-5.45 359.52-2.55 356.72-0.93 353.92 0.7 350.52 0.7L350.52 0.7Q346.07 0.7 342.32-2.7L342.32-2.7 342.32 6.95 347.77 6.95 347.77 10.9 332.27 10.9 332.27 6.95 337.52 6.95 337.52-19.6 332.27-19.6 332.27-23.55 342.32-23.55 342.32-19Q344.27-21.4 346.77-22.8 349.27-24.2 351.82-24.2L351.82-24.2ZM349.47-3.5Q351.82-3.5 353.69-4.58 355.57-5.65 356.62-7.6 357.67-9.55 357.67-12.05L357.67-12.05Q357.67-15.6 355.64-17.82 353.62-20.05 350.47-20.05L350.47-20.05Q348.32-20.05 346.22-18.75 344.12-17.45 342.32-15.15L342.32-15.15 342.32-6.4Q345.92-3.5 349.47-3.5L349.47-3.5ZM387.67-24.15L389.77-24.15 389.77-14.15 385.42-14.15 385.42-19.3Q383.47-19.3 381.17-17.85 378.87-16.4 376.42-13.75L376.42-13.75 376.42-3.95 381.77-3.95 381.77 0 366.22 0 366.22-3.95 371.52-3.95 371.52-19.6 366.22-19.6 366.22-23.55 376.42-23.55 376.42-17.65Q379.07-20.7 381.94-22.43 384.82-24.15 387.67-24.15L387.67-24.15ZM406.56 0.7Q403.11 0.7 400.11-0.85 397.11-2.4 395.34-5.25 393.56-8.1 393.56-11.75L393.56-11.75Q393.56-15.45 395.34-18.28 397.11-21.1 400.11-22.65 403.11-24.2 406.56-24.2L406.56-24.2Q409.96-24.2 412.94-22.65 415.91-21.1 417.71-18.25 419.51-15.4 419.51-11.75L419.51-11.75Q419.51-8.1 417.76-5.25 416.01-2.4 413.04-0.85 410.06 0.7 406.56 0.7L406.56 0.7ZM406.56-3.25Q408.81-3.25 410.61-4.3 412.41-5.35 413.44-7.28 414.46-9.2 414.46-11.75L414.46-11.75Q414.46-14.3 413.44-16.23 412.41-18.15 410.61-19.2 408.81-20.25 406.56-20.25L406.56-20.25Q403.11-20.25 400.89-17.93 398.66-15.6 398.66-11.75L398.66-11.75Q398.66-7.9 400.89-5.58 403.11-3.25 406.56-3.25L406.56-3.25ZM438.26-32.5Q435.96-32.5 434.56-31.05 433.16-29.6 433.16-27.05L433.16-27.05 433.16-23.55 440.66-23.55 440.66-19.6 433.16-19.6 433.16-3.95 440.06-3.95 440.06 0 423.01 0 423.01-3.95 428.31-3.95 428.31-19.6 423.01-19.6 423.01-23.55 428.31-23.55 428.31-26.9Q428.31-31.55 430.89-34.1 433.46-36.65 437.76-36.65L437.76-36.65Q439.96-36.65 441.79-36.08 443.61-35.5 446.01-34.4L446.01-34.4 444.21-30.6Q442.66-31.5 441.24-32 439.81-32.5 438.26-32.5L438.26-32.5ZM466.41-6.7L468.51-3.5Q463.71 0.7 457.56 0.7L457.56 0.7Q454.21 0.7 451.21-0.7 448.21-2.1 446.36-4.8 444.51-7.5 444.51-11.2L444.51-11.2Q444.51-15.15 446.41-18.1 448.31-21.05 451.36-22.63 454.41-24.2 457.76-24.2L457.76-24.2Q460.71-24.2 463.03-23.25 465.36-22.3 466.68-20.6 468.01-18.9 468.01-16.7L468.01-16.7Q468.01-13.4 465.18-11.58 462.36-9.75 458.41-9.75L458.41-9.75Q455.86-9.75 453.66-10.28 451.46-10.8 449.21-11.8L449.21-11.8 449.21-11.35Q449.21-9 450.33-7.2 451.46-5.4 453.36-4.45 455.26-3.5 457.51-3.5L457.51-3.5Q462.61-3.5 466.41-6.7L466.41-6.7ZM458.11-20.3Q455.41-20.3 453.08-18.75 450.76-17.2 449.76-14.55L449.76-14.55Q453.56-13.2 457.36-13.2L457.36-13.2Q459.86-13.2 461.48-14.13 463.11-15.05 463.11-16.7L463.11-16.7Q463.11-18.3 461.71-19.3 460.31-20.3 458.11-20.3L458.11-20.3ZM484.61-13.9Q489.21-12.65 491.68-10.78 494.16-8.9 494.16-5.75L494.16-5.75Q494.16-2.85 491.71-1.07 489.26 0.7 485.66 0.7L485.66 0.7Q483.16 0.7 480.73-0.18 478.31-1.05 476.41-2.6L476.41-2.6 476.41 0.05 472.61 0.05 472.61-7.6 474.76-7.8Q476.66-5.65 479.53-4.13 482.41-2.6 485.16-2.6L485.16-2.6Q487.01-2.6 488.06-3.3 489.11-4 489.11-5.3L489.11-5.3Q489.11-6.8 487.46-7.78 485.81-8.75 482.06-9.75L482.06-9.75Q477.56-10.95 475.13-12.78 472.71-14.6 472.71-17.55L472.71-17.55Q472.71-19.4 473.73-20.93 474.76-22.45 476.63-23.33 478.51-24.2 480.96-24.2L480.96-24.2Q483.36-24.2 485.53-23.4 487.71-22.6 489.31-21.15L489.31-21.15 489.31-23.55 493.06-23.55 493.06-15.95 490.86-15.7Q489.46-18.05 487.03-19.48 484.61-20.9 482.21-20.9L482.21-20.9Q480.26-20.9 479.01-20.13 477.76-19.35 477.76-18.1L477.76-18.1Q477.76-16.75 479.41-15.83 481.06-14.9 484.61-13.9L484.61-13.9ZM511.8-13.9Q516.4-12.65 518.88-10.78 521.35-8.9 521.35-5.75L521.35-5.75Q521.35-2.85 518.9-1.07 516.45 0.7 512.85 0.7L512.85 0.7Q510.35 0.7 507.93-0.18 505.5-1.05 503.6-2.6L503.6-2.6 503.6 0.05 499.8 0.05 499.8-7.6 501.95-7.8Q503.85-5.65 506.73-4.13 509.6-2.6 512.35-2.6L512.35-2.6Q514.2-2.6 515.25-3.3 516.3-4 516.3-5.3L516.3-5.3Q516.3-6.8 514.65-7.78 513-8.75 509.25-9.75L509.25-9.75Q504.75-10.95 502.33-12.78 499.9-14.6 499.9-17.55L499.9-17.55Q499.9-19.4 500.93-20.93 501.95-22.45 503.83-23.33 505.7-24.2 508.15-24.2L508.15-24.2Q510.55-24.2 512.73-23.4 514.9-22.6 516.5-21.15L516.5-21.15 516.5-23.55 520.25-23.55 520.25-15.95 518.05-15.7Q516.65-18.05 514.23-19.48 511.8-20.9 509.4-20.9L509.4-20.9Q507.45-20.9 506.2-20.13 504.95-19.35 504.95-18.1L504.95-18.1Q504.95-16.75 506.6-15.83 508.25-14.9 511.8-13.9L511.8-13.9ZM533.3-28.9Q531.7-28.9 530.6-29.75 529.5-30.6 529.5-31.9L529.5-31.9Q529.5-33.25 530.6-34.13 531.7-35 533.3-35L533.3-35Q535-35 536.1-34.13 537.2-33.25 537.2-31.9L537.2-31.9Q537.2-30.6 536.1-29.75 535-28.9 533.3-28.9L533.3-28.9ZM536.3-3.95L541.65-3.95 541.65 0 526.1 0 526.1-3.95 531.4-3.95 531.4-19.6 526.1-19.6 526.1-23.55 536.3-23.55 536.3-3.95ZM557.2 0.7Q553.75 0.7 550.75-0.85 547.75-2.4 545.97-5.25 544.2-8.1 544.2-11.75L544.2-11.75Q544.2-15.45 545.97-18.28 547.75-21.1 550.75-22.65 553.75-24.2 557.2-24.2L557.2-24.2Q560.6-24.2 563.57-22.65 566.55-21.1 568.35-18.25 570.15-15.4 570.15-11.75L570.15-11.75Q570.15-8.1 568.4-5.25 566.65-2.4 563.67-0.85 560.7 0.7 557.2 0.7L557.2 0.7ZM557.2-3.25Q559.45-3.25 561.25-4.3 563.05-5.35 564.07-7.28 565.1-9.2 565.1-11.75L565.1-11.75Q565.1-14.3 564.07-16.23 563.05-18.15 561.25-19.2 559.45-20.25 557.2-20.25L557.2-20.25Q553.75-20.25 551.52-17.93 549.3-15.6 549.3-11.75L549.3-11.75Q549.3-7.9 551.52-5.58 553.75-3.25 557.2-3.25L557.2-3.25ZM603.19-3.95L607.89-3.95 607.89 0 593.99 0 593.99-3.95 598.34-3.95 598.34-13.7Q598.34-16.45 596.97-18.03 595.59-19.6 593.04-19.6L593.04-19.6Q588.69-19.6 583.84-14.1L583.84-14.1 583.84-3.95 588.19-3.95 588.19 0 573.64 0 573.64-3.95 578.94-3.95 578.94-19.6 573.64-19.6 573.64-23.55 583.84-23.55 583.84-18Q586.64-21.1 589.22-22.63 591.79-24.15 594.74-24.15L594.74-24.15Q598.79-24.15 600.99-21.55 603.19-18.95 603.19-13.85L603.19-13.85 603.19-3.95ZM636.94-4.15L637.94-0.6Q636.29 0.4 634.09 0.4L634.09 0.4Q632.24 0.4 630.97-0.68 629.69-1.75 629.19-3.75L629.19-3.75Q624.19 0.7 619.29 0.7L619.29 0.7Q615.84 0.7 613.44-1.25 611.04-3.2 611.04-6.7L611.04-6.7Q611.04-9.1 612.39-10.88 613.74-12.65 616.02-13.58 618.29-14.5 620.94-14.5L620.94-14.5Q623.19-14.5 625.09-14.08 626.99-13.65 628.99-12.85L628.99-12.85 628.99-15.05Q628.99-17.6 627.29-18.8 625.59-20 622.84-20L622.84-20Q618.94-20 613.44-17.85L613.44-17.85 612.44-21.65Q618.34-24.15 623.44-24.15L623.44-24.15Q628.29-24.15 630.97-21.78 633.64-19.4 633.64-14.85L633.64-14.85 633.64-6.2Q633.64-3.75 635.39-3.75L635.39-3.75Q636.14-3.75 636.94-4.15L636.94-4.15ZM615.89-6.95Q615.89-5.25 617.24-4.33 618.59-3.4 620.54-3.4L620.54-3.4Q622.24-3.4 624.44-4.3 626.64-5.2 628.99-6.95L628.99-6.95 628.99-9.6Q625.59-10.8 621.79-10.9L621.79-10.9Q619.34-10.9 617.62-9.88 615.89-8.85 615.89-6.95L615.89-6.95ZM649.54-3.95L654.99-3.95 654.99 0 639.39 0 639.39-3.95 644.64-3.95 644.64-30.35 639.39-30.35 639.39-34.3 649.54-34.3 649.54-3.95ZM669.74-13.9Q674.34-12.65 676.81-10.78 679.29-8.9 679.29-5.75L679.29-5.75Q679.29-2.85 676.84-1.07 674.39 0.7 670.79 0.7L670.79 0.7Q668.29 0.7 665.86-0.18 663.44-1.05 661.54-2.6L661.54-2.6 661.54 0.05 657.74 0.05 657.74-7.6 659.89-7.8Q661.79-5.65 664.66-4.13 667.54-2.6 670.29-2.6L670.29-2.6Q672.14-2.6 673.19-3.3 674.24-4 674.24-5.3L674.24-5.3Q674.24-6.8 672.59-7.78 670.94-8.75 667.19-9.75L667.19-9.75Q662.69-10.95 660.26-12.78 657.84-14.6 657.84-17.55L657.84-17.55Q657.84-19.4 658.86-20.93 659.89-22.45 661.76-23.33 663.64-24.2 666.09-24.2L666.09-24.2Q668.49-24.2 670.66-23.4 672.84-22.6 674.44-21.15L674.44-21.15 674.44-23.55 678.19-23.55 678.19-15.95 675.99-15.7Q674.59-18.05 672.16-19.48 669.74-20.9 667.34-20.9L667.34-20.9Q665.39-20.9 664.14-20.13 662.89-19.35 662.89-18.1L662.89-18.1Q662.89-16.75 664.54-15.83 666.19-14.9 669.74-13.9L669.74-13.9ZM717.93-5.35L719.63-1.65Q717.78-0.55 716.01 0.05 714.23 0.65 711.93 0.65L711.93 0.65Q708.08 0.65 705.81-1.78 703.53-4.2 703.53-8.7L703.53-8.7 703.53-19.6 698.28-19.6 698.28-23.55 703.53-23.55 703.53-30.1 708.43-30.1 708.43-23.55 716.23-23.55 716.23-19.6 708.43-19.6 708.43-8.65Q708.43-6.1 709.58-4.9 710.73-3.7 712.68-3.7L712.68-3.7Q714.08-3.7 715.33-4.13 716.58-4.55 717.93-5.35L717.93-5.35ZM734.08 0.7Q730.63 0.7 727.63-0.85 724.63-2.4 722.85-5.25 721.08-8.1 721.08-11.75L721.08-11.75Q721.08-15.45 722.85-18.28 724.63-21.1 727.63-22.65 730.63-24.2 734.08-24.2L734.08-24.2Q737.48-24.2 740.45-22.65 743.43-21.1 745.23-18.25 747.03-15.4 747.03-11.75L747.03-11.75Q747.03-8.1 745.28-5.25 743.53-2.4 740.55-0.85 737.58 0.7 734.08 0.7L734.08 0.7ZM734.08-3.25Q736.33-3.25 738.13-4.3 739.93-5.35 740.95-7.28 741.98-9.2 741.98-11.75L741.98-11.75Q741.98-14.3 740.95-16.23 739.93-18.15 738.13-19.2 736.33-20.25 734.08-20.25L734.08-20.25Q730.63-20.25 728.4-17.93 726.18-15.6 726.18-11.75L726.18-11.75Q726.18-7.9 728.4-5.58 730.63-3.25 734.08-3.25L734.08-3.25ZM778.17-13.9Q782.77-12.65 785.25-10.78 787.72-8.9 787.72-5.75L787.72-5.75Q787.72-2.85 785.27-1.07 782.82 0.7 779.22 0.7L779.22 0.7Q776.72 0.7 774.3-0.18 771.87-1.05 769.97-2.6L769.97-2.6 769.97 0.05 766.17 0.05 766.17-7.6 768.32-7.8Q770.22-5.65 773.1-4.13 775.97-2.6 778.72-2.6L778.72-2.6Q780.57-2.6 781.62-3.3 782.67-4 782.67-5.3L782.67-5.3Q782.67-6.8 781.02-7.78 779.37-8.75 775.62-9.75L775.62-9.75Q771.12-10.95 768.7-12.78 766.27-14.6 766.27-17.55L766.27-17.55Q766.27-19.4 767.3-20.93 768.32-22.45 770.2-23.33 772.07-24.2 774.52-24.2L774.52-24.2Q776.92-24.2 779.1-23.4 781.27-22.6 782.87-21.15L782.87-21.15 782.87-23.55 786.62-23.55 786.62-15.95 784.42-15.7Q783.02-18.05 780.6-19.48 778.17-20.9 775.77-20.9L775.77-20.9Q773.82-20.9 772.57-20.13 771.32-19.35 771.32-18.1L771.32-18.1Q771.32-16.75 772.97-15.83 774.62-14.9 778.17-13.9L778.17-13.9ZM822.07-4L823.17-0.45Q821.47 0.5 819.42 0.5L819.42 0.5Q817.07 0.5 815.62-0.9 814.17-2.3 813.97-4.9L813.97-4.9Q811.47-2.15 809.07-0.75 806.67 0.65 804.02 0.65L804.02 0.65Q800.12 0.65 798-1.95 795.87-4.55 795.87-9.6L795.87-9.6 795.87-19.6 791.17-19.6 791.17-23.55 800.77-23.55 800.77-9.75Q800.77-6.95 801.95-5.43 803.12-3.9 805.72-3.9L805.72-3.9Q809.57-3.9 813.92-8.75L813.92-8.75 813.92-19.6 809.62-19.6 809.62-23.55 818.82-23.55 818.82-6.05Q818.82-3.6 820.52-3.6L820.52-3.6Q821.52-3.6 822.07-4L822.07-4ZM847.27-7L849.47-3.8Q844.82 0.7 838.62 0.7L838.62 0.7Q835.32 0.7 832.42-0.85 829.52-2.4 827.77-5.23 826.02-8.05 826.02-11.7L826.02-11.7Q826.02-15.15 827.62-18.03 829.22-20.9 831.92-22.55 834.62-24.2 837.77-24.2L837.77-24.2Q842.77-24.2 845.57-20.65L845.57-20.65 845.57-23.55 849.12-23.55 849.12-15.3 847.02-15.15Q844.57-20.15 839.22-20.15L839.22-20.15Q836.92-20.15 835.07-19.07 833.22-18 832.17-16.1 831.12-14.2 831.12-11.75L831.12-11.75Q831.12-9.35 832.24-7.45 833.37-5.55 835.19-4.53 837.02-3.5 839.12-3.5L839.12-3.5Q841.57-3.45 843.44-4.35 845.32-5.25 847.27-7L847.27-7ZM874.27-7L876.47-3.8Q871.82 0.7 865.62 0.7L865.62 0.7Q862.32 0.7 859.42-0.85 856.52-2.4 854.77-5.23 853.02-8.05 853.02-11.7L853.02-11.7Q853.02-15.15 854.62-18.03 856.22-20.9 858.92-22.55 861.62-24.2 864.77-24.2L864.77-24.2Q869.77-24.2 872.57-20.65L872.57-20.65 872.57-23.55 876.12-23.55 876.12-15.3 874.02-15.15Q871.57-20.15 866.22-20.15L866.22-20.15Q863.92-20.15 862.07-19.07 860.22-18 859.17-16.1 858.12-14.2 858.12-11.75L858.12-11.75Q858.12-9.35 859.24-7.45 860.37-5.55 862.19-4.53 864.02-3.5 866.12-3.5L866.12-3.5Q868.57-3.45 870.44-4.35 872.32-5.25 874.27-7L874.27-7ZM901.91-6.7L904.01-3.5Q899.21 0.7 893.06 0.7L893.06 0.7Q889.71 0.7 886.71-0.7 883.71-2.1 881.86-4.8 880.01-7.5 880.01-11.2L880.01-11.2Q880.01-15.15 881.91-18.1 883.81-21.05 886.86-22.63 889.91-24.2 893.26-24.2L893.26-24.2Q896.21-24.2 898.54-23.25 900.86-22.3 902.19-20.6 903.51-18.9 903.51-16.7L903.51-16.7Q903.51-13.4 900.69-11.58 897.86-9.75 893.91-9.75L893.91-9.75Q891.36-9.75 889.16-10.28 886.96-10.8 884.71-11.8L884.71-11.8 884.71-11.35Q884.71-9 885.84-7.2 886.96-5.4 888.86-4.45 890.76-3.5 893.01-3.5L893.01-3.5Q898.11-3.5 901.91-6.7L901.91-6.7ZM893.61-20.3Q890.91-20.3 888.59-18.75 886.26-17.2 885.26-14.55L885.26-14.55Q889.06-13.2 892.86-13.2L892.86-13.2Q895.36-13.2 896.99-14.13 898.61-15.05 898.61-16.7L898.61-16.7Q898.61-18.3 897.21-19.3 895.81-20.3 893.61-20.3L893.61-20.3ZM920.11-13.9Q924.71-12.65 927.19-10.78 929.66-8.9 929.66-5.75L929.66-5.75Q929.66-2.85 927.21-1.07 924.76 0.7 921.16 0.7L921.16 0.7Q918.66 0.7 916.24-0.18 913.81-1.05 911.91-2.6L911.91-2.6 911.91 0.05 908.11 0.05 908.11-7.6 910.26-7.8Q912.16-5.65 915.04-4.13 917.91-2.6 920.66-2.6L920.66-2.6Q922.51-2.6 923.56-3.3 924.61-4 924.61-5.3L924.61-5.3Q924.61-6.8 922.96-7.78 921.31-8.75 917.56-9.75L917.56-9.75Q913.06-10.95 910.64-12.78 908.21-14.6 908.21-17.55L908.21-17.55Q908.21-19.4 909.24-20.93 910.26-22.45 912.14-23.33 914.01-24.2 916.46-24.2L916.46-24.2Q918.86-24.2 921.04-23.4 923.21-22.6 924.81-21.15L924.81-21.15 924.81-23.55 928.56-23.55 928.56-15.95 926.36-15.7Q924.96-18.05 922.54-19.48 920.11-20.9 917.71-20.9L917.71-20.9Q915.76-20.9 914.51-20.13 913.26-19.35 913.26-18.1L913.26-18.1Q913.26-16.75 914.91-15.83 916.56-14.9 920.11-13.9L920.11-13.9ZM947.31-13.9Q951.91-12.65 954.38-10.78 956.86-8.9 956.86-5.75L956.86-5.75Q956.86-2.85 954.41-1.07 951.96 0.7 948.36 0.7L948.36 0.7Q945.86 0.7 943.43-0.18 941.01-1.05 939.11-2.6L939.11-2.6 939.11 0.05 935.31 0.05 935.31-7.6 937.46-7.8Q939.36-5.65 942.23-4.13 945.11-2.6 947.86-2.6L947.86-2.6Q949.71-2.6 950.76-3.3 951.81-4 951.81-5.3L951.81-5.3Q951.81-6.8 950.16-7.78 948.51-8.75 944.76-9.75L944.76-9.75Q940.26-10.95 937.83-12.78 935.41-14.6 935.41-17.55L935.41-17.55Q935.41-19.4 936.43-20.93 937.46-22.45 939.33-23.33 941.21-24.2 943.66-24.2L943.66-24.2Q946.06-24.2 948.23-23.4 950.41-22.6 952.01-21.15L952.01-21.15 952.01-23.55 955.76-23.55 955.76-15.95 953.56-15.7Q952.16-18.05 949.73-19.48 947.31-20.9 944.91-20.9L944.91-20.9Q942.96-20.9 941.71-20.13 940.46-19.35 940.46-18.1L940.46-18.1Q940.46-16.75 942.11-15.83 943.76-14.9 947.31-13.9L947.31-13.9Z" opacity="1" transform="matrix(1,0,0,1,0,0)" fill="#49beb7" class="undefined-text-1" data-fill-palette-color="secondary" id="text-1"></path></svg></g></svg></g></svg></g></svg></g></svg></g></svg></g></svg></g></svg></g><defs></defs></svg><rect width="395.52" height="247.2" fill="none" stroke="none" visibility="hidden"></rect></g></svg></g></svg>